<svg xmlns="http://www.w3.org/2000/svg" xmlns:xlink="http://www.w3.org/1999/xlink" id="Layer_1" x="0" y="0" version="1.1" viewBox="0 0 270 270" xml:space="preserve" style="enable-background:new 0 0 270 270"><style type="text/css">.st0{fill:#e01e5a}.st1{fill:#36c5f0}.st2{fill:#2eb67d}.st3{fill:#ecb22e}</style><g><g><path d="M56.7,170.6c0,15.6-12.8,28.4-28.4,28.4S0,186.2,0,170.6c0-15.6,12.8-28.4,28.4-28.4h28.4V170.6z" class="st0"/><path d="M71,170.6c0-15.6,12.8-28.4,28.4-28.4s28.4,12.8,28.4,28.4v71c0,15.6-12.8,28.4-28.4,28.4S71,257.2,71,241.6 C71,241.6,71,170.6,71,170.6z" class="st0"/></g><g><path d="M99.4,56.7C83.8,56.7,71,44,71,28.4S83.8,0,99.4,0s28.4,12.8,28.4,28.4v28.4H99.4z" class="st1"/><path d="M99.4,71c15.6,0,28.4,12.8,28.4,28.4s-12.8,28.4-28.4,28.4h-71C12.8,127.7,0,115,0,99.4S12.8,71,28.4,71 C28.4,71,99.4,71,99.4,71z" class="st1"/></g><g><path d="M213.3,99.4c0-15.6,12.8-28.4,28.4-28.4c15.6,0,28.4,12.8,28.4,28.4s-12.8,28.4-28.4,28.4h-28.4V99.4z" class="st2"/><path d="M199,99.4c0,15.6-12.8,28.4-28.4,28.4s-28.4-12.8-28.4-28.4v-71C142.3,12.8,155,0,170.6,0 C186.2,0,199,12.8,199,28.4V99.4z" class="st2"/></g><g><path d="M170.6,213.3c15.6,0,28.4,12.8,28.4,28.4c0,15.6-12.8,28.4-28.4,28.4c-15.6,0-28.4-12.8-28.4-28.4v-28.4 H170.6z" class="st3"/><path d="M170.6,199c-15.6,0-28.4-12.8-28.4-28.4c0-15.6,12.8-28.4,28.4-28.4h71c15.6,0,28.4,12.8,28.4,28.4 c0,15.6-12.8,28.4-28.4,28.4H170.6z" class="st3"/></g></g></svg>