<svg xmlns="http://www.w3.org/2000/svg" xmlns:xlink="http://www.w3.org/1999/xlink" id="Layer_1" x="0" y="0" version="1.1" viewBox="0 0 586 559" xml:space="preserve" style="enable-background:new 0 0 586 559"><style type="text/css">.st0{fill:#e24329}.st1{fill:#fca326}.st2{fill:#fc6d26}.st3{display:none}.st4{opacity:.1;fill:#e828e3;enable-background:new}.st4,.st5{display:inline}.st6{font-family:&apos;ArialMT&apos;}.st7{font-size:24px}</style><g id="logo_art"><g><path id="path50_2_" d="M293,548.3L293,548.3l107.5-330.8H185.6L293,548.3L293,548.3z" class="st0"/><path id="path66_6_" d="M35,217.5L35,217.5L2.3,318c-3,9.1,0.2,19.2,8.1,24.9L293,548.3L35,217.5L35,217.5z" class="st1"/><path id="path74_2_" d="M35,217.5h150.6L120.8,18.3c-3.3-10.2-17.8-10.2-21.2,0L35,217.5L35,217.5z" class="st0"/><path id="path82_6_" d="M551.2,217.5L551.2,217.5L583.8,318c3,9.1-0.2,19.2-8.1,24.9L293,548.3L551.2,217.5 L551.2,217.5z" class="st1"/><path id="path86_2_" d="M551.2,217.5H400.6l64.7-199.2c3.3-10.2,17.8-10.2,21.2,0L551.2,217.5L551.2,217.5z" class="st0"/><polygon points="293 548.3 400.6 217.5 551.2 217.5" class="st2"/><polygon points="293 548.3 35 217.5 185.6 217.5" class="st2"/></g></g><g xmlns:sketch="http://www.bohemiancoding.com/sketch/ns" id="spacing_guides" class="st3"><path id="path40_18_" d="M0,0.5v124h586V0.5H0L0,0.5z" class="st4" sketch:type="MSShapeGroup"/><path id="path40_16_" d="M0,435.5v124h586v-124H0L0,435.5z" class="st4" sketch:type="MSShapeGroup"/><path id="path40_15_" d="M462.2,560h124V0h-124V560L462.2,560z" class="st4" sketch:type="MSShapeGroup"/><g class="st5"><text class="st6 st7" transform="matrix(1 0 0 1 511.2881 283.3319)">1x</text></g><g class="st5"><text class="st6 st7" transform="matrix(1 0 0 1 281.2881 500.9977)">1x</text></g><g class="st5"><text class="st6 st7" transform="matrix(1 0 0 1 281.2881 65.998)">1x</text></g><path id="path40_5_" d="M0,560h124V0H0V560L0,560z" class="st4" sketch:type="MSShapeGroup"/><g class="st5"><text class="st6 st7" transform="matrix(1 0 0 1 51.2881 283.3319)">1x</text></g></g></svg>